#!OML:ASF F:\VICON\USERDATA\INSTALL\rory3\rory3.ASF
:FULLY-SPECIFIED
:DEGREES
2213
root -6.22846 17.7669 -0.702564 -171.021 124.062 -176.014
lowerback 2.99944 -5.991 -2.23514
upperback 2.29595 -8.01836 3.16392
thorax 1.45978 -4.07057 4.58547
lowerneck -17.023 -9.09047 -16.5669
upperneck 27.9609 -6.96283 -2.08298
head 12.887 -5.01617 0.766358
rclavicle 8.26944e-014 -2.38542e-015
rhumerus -11.937 -23.805 -63.2603
rradius 49.8162
rwrist -33.5775
rhand -30.6628 -7.7088
rfingers 7.12502
rthumb -3.95751 -37.6518
lclavicle 8.26944e-014 -2.38542e-015
lhumerus 9.01812 -3.32397 79.801
lradius 49.6473
lwrist 42.1912
lhand -9.59453 43.6457
lfingers 7.12502
lthumb 16.3741 1152.97
rfemur -15.6371 -0.107777 21.0776
rtibia 35.2413
rfoot -22.2027 -4.00689
rtoes 11.4965
lfemur -12.7864 2.17138 -11.2652
ltibia 29.057
lfoot -10.8087 6.87583
ltoes -20.4274
2214
root -6.22241 17.7658 -0.72781 -171.093 123.691 -176.207
lowerback 3.01554 -5.99885 -2.09192
upperback 2.18362 -8.02458 3.11088
thorax 1.30725 -4.06667 4.46301
lowerneck -16.3757 -9.20153 -17.032
upperneck 27.3549 -7.38762 -1.31337
head 12.5926 -5.12973 1.09463
rclavicle -1.13307e-014 1.98785e-014
rhumerus -10.5604 -25.1671 -62.8215
rradius 49.9859
rwrist -35.4011
rhand -31.7933 -8.23912
rfingers 7.12502
rthumb -5.04911 -38.159
lclavicle -1.13307e-014 1.98785e-014
lhumerus 9.57729 -3.82749 80.0478
lradius 50.3369
lwrist 45.1926
lhand -9.85531 43.633
lfingers 7.12502
lthumb 16.123 1152.98
rfemur -15.7393 -0.277218 21.1489
rtibia 35.248
rfoot -22.2925 -4.12269
rtoes 11.7004
lfemur -12.9216 2.16335 -11.0732
ltibia 28.9234
lfoot -11.0467 6.54281
ltoes -20.6602
2215
root -6.21594 17.7653 -0.754113 -170.741 123.333 -175.885
lowerback 3.01379 -6.03687 -2.23717
upperback 2.07811 -8.079 2.9719
thorax 1.20403 -4.09204 4.40646
lowerneck -15.9957 -9.28488 -17.1905
upperneck 27.0015 -7.67799 -0.920407
head 12.4194 -5.21244 1.23909
rclavicle -5.76476e-014 2.06736e-014
rhumerus -8.99768 -26.7501 -62.5833
rradius 50.0257
rwrist -37.0106
rhand -32.7218 -8.65556
rfingers 7.12502
rthumb -5.94567 -38.5521
lclavicle -5.76476e-014 2.06736e-014
lhumerus 10.1741 -4.218 80.267
lradius 50.9988
lwrist 47.9664
lhand -9.85221 43.7335
lfingers 7.12502
lthumb 16.126 1153.08
rfemur -15.8574 -0.547982 20.8861
rtibia 35.2738
rfoot -22.2951 -4.13782
rtoes 12.0057
lfemur -13.0341 2.0792 -11.2139
ltibia 28.7677
lfoot -11.1545 6.37625
ltoes -20.4378
2216
root -6.21036 17.7646 -0.775795 -170.394 122.862 -175.486
lowerback 3.05243 -6.11144 -2.49566
upperback 2.00548 -8.18576 2.86676
thorax 1.13867 -4.14659 4.44819
lowerneck -15.9404 -9.40991 -17.249
upperneck 26.9437 -7.89207 -0.795955
head 12.4118 -5.29581 1.25992
rclavicle 9.72057e-014 -3.02153e-014
rhumerus -7.18612 -28.5197 -62.4889
rradius 49.9203
rwrist -38.519
rhand -33.382 -9.05946
rfingers 7.12502
rthumb -6.58299 -38.9371
lclavicle 9.72057e-014 -3.02153e-014
lhumerus 10.853 -4.3703 80.6425
lradius 51.6147
lwrist 50.4569
lhand -9.00911 43.6846
lfingers 7.12502
lthumb 16.9377 1152.97
rfemur -15.8303 -0.717369 20.6338
rtibia 35.2698
rfoot -22.3846 -4.40095
rtoes 11.5031
lfemur -13.1139 1.95803 -11.3526
ltibia 28.6423
lfoot -11.2949 6.3048
ltoes -20.2365
2217
root -6.20461 17.7659 -0.797256 -170.369 122.394 -175.442
lowerback 3.09898 -6.15247 -2.59263
upperback 1.97583 -8.24352 2.84213
thorax 1.098 -4.17564 4.48295
lowerneck -15.9045 -9.58159 -17.4217
upperneck 26.9 -8.14283 -0.638626
head 12.4272 -5.4027 1.30163
rclavicle -1.4074e-013 1.27222e-014
rhumerus -5.34289 -30.1033 -62.3927
rradius 49.9847
rwrist -40.407
rhand -34.1335 -9.59756
rfingers 7.12502
rthumb -7.30846 -39.4513
lclavicle -1.4074e-013 1.27222e-014
lhumerus 11.5553 -4.65873 81.0738
lradius 52.4276
lwrist 53.1427
lhand -9.33056 44.2184
lfingers 7.12502
lthumb 16.6282 1153.53
rfemur -15.7539 -0.852987 20.5981
rtibia 35.221
rfoot -22.4382 -4.69137
rtoes 10.8335
lfemur -13.169 1.85198 -11.2517
ltibia 28.5642
lfoot -11.5611 6.44637
ltoes -19.4828
2218
root -6.19867 17.762 -0.822582 -170.657 122.004 -175.769
lowerback 3.14415 -6.15698 -2.48532
upperback 1.96661 -8.24666 2.86306
thorax 1.05147 -4.17478 4.45246
lowerneck -15.8694 -9.77029 -17.5605
upperneck 26.8599 -8.40465 -0.555166
head 12.4413 -5.5201 1.3077
rclavicle 1.40541e-013 -1.27222e-014
rhumerus -3.60206 -31.4491 -62.2835
rradius 50.2479
rwrist -42.3833
rhand -34.5786 -10.5718
rfingers 7.12502
rthumb -7.73807 -40.4102
lclavicle 1.40541e-013 -1.27222e-014
lhumerus 12.1954 -5.11208 81.4301
lradius 53.449
lwrist 55.9392
lhand -10.4045 44.7555
lfingers 7.12502
lthumb 15.5941 1154.15
rfemur -15.647 -1.03084 20.7621
rtibia 35.0959
rfoot -22.4239 -4.85506
rtoes 10.0595
lfemur -13.1518 1.44746 -10.8792
ltibia 28.5551
lfoot -12.1081 6.78134
ltoes -16.7454
2219
root -6.19155 17.7574 -0.848127 -170.717 121.629 -175.899
lowerback 3.06749 -6.17669 -2.50044
upperback 1.97538 -8.27291 2.86688
thorax 1.10842 -4.18939 4.45445
lowerneck -15.9985 -9.93326 -17.5823
upperneck 26.9373 -8.59451 -0.572644
head 12.5173 -5.61034 1.26165
rclavicle -1.09332e-015 1.03368e-014
rhumerus -1.60741 -32.989 -62.4253
rradius 50.4391
rwrist -43.9086
rhand -34.9017 -11.5633
rfingers 7.12502
rthumb -8.04991 -41.39
lclavicle -1.09332e-015 1.03368e-014
lhumerus 12.8602 -5.50185 81.7792
lradius 54.5145
lwrist 58.4959
lhand -10.9162 44.7263
lfingers 7.12502
lthumb 15.1012 1154.16
rfemur -15.5852 -1.19041 20.8163
rtibia 34.9431
rfoot -22.4126 -5.06649
rtoes 8.30821
lfemur -13.1644 0.820149 -10.5991
ltibia 28.5915
lfoot -12.7739 7.20526
ltoes -13.2307
